<svg width="857" height="857" viewBox="0 0 857 857" fill="none" xmlns="http://www.w3.org/2000/svg">
<path d="M857 0H0V857H857V0Z" fill="#DF3942"/>
<path d="M705.654 479.92C696.111 490.839 684.425 499.678 671.322 505.889C658.218 512.1 643.977 515.55 629.484 516.024C614.991 516.498 600.555 513.987 587.074 508.646C573.593 503.305 561.354 495.248 551.118 484.977C540.882 474.706 532.867 462.439 527.573 448.939C522.278 435.439 519.817 420.995 520.341 406.504C520.865 392.012 524.364 377.784 530.62 364.702C536.876 351.62 545.756 339.964 556.707 330.459L484.376 258.3L478.206 264.642C472.087 270.545 466.361 276.843 461.066 283.496C455.76 276.852 450.035 270.555 443.926 264.642C424.709 245.379 401.881 230.095 376.749 219.668C351.616 209.24 324.674 203.873 297.465 203.873C270.255 203.873 243.313 209.24 218.181 219.668C193.049 230.095 170.22 245.379 151.003 264.642C131.755 283.885 116.487 306.731 106.07 331.876C95.6524 357.021 90.2907 383.971 90.2907 411.189C90.2907 438.406 95.6524 465.357 106.07 490.501C116.487 515.646 131.755 538.493 151.003 557.736C170.235 577.004 193.078 592.291 218.224 602.721C243.37 613.151 270.327 618.519 297.55 618.519C324.774 618.519 351.73 613.151 376.877 602.721C402.023 592.291 424.866 577.004 444.097 557.736C450.187 551.804 455.911 545.508 461.237 538.882C466.55 545.519 472.275 551.816 478.377 557.736C497.62 576.984 520.467 592.252 545.612 602.669C570.756 613.087 597.707 618.448 624.924 618.448C652.142 618.448 679.092 613.087 704.237 602.669C729.382 592.252 752.228 576.984 771.471 557.736L776.785 552.079L705.654 479.92ZM299.093 516.942C278.211 516.942 257.797 510.75 240.434 499.149C223.072 487.547 209.539 471.057 201.548 451.765C193.556 432.472 191.465 411.243 195.539 390.762C199.613 370.281 209.669 351.468 224.435 336.702C239.201 321.936 258.014 311.88 278.495 307.806C298.976 303.732 320.205 305.823 339.498 313.815C358.79 321.806 375.28 335.339 386.882 352.702C398.483 370.065 404.675 390.478 404.675 411.36C404.675 439.362 393.552 466.218 373.751 486.018C353.95 505.819 327.095 516.942 299.093 516.942Z" fill="white"/>
</svg>